<svg className="ebi-react-icon" id="bg-lines" width="1051" height="2065" viewBox="0 0 1051 2065" fill="none" xmlns="http://www.w3.org/2000/svg"><g clip-path="url(#clip0_bg-lines)" stroke-opacity=".18"><path d="M115.263 210.762C-40.189 854.247 1095.32 482.02 802.579 578.525 11.941 839.161 330.136 1431-11.801 1729.9" stroke="url(#paint0_radial_bg-lines)"/><path d="M843.018 1412.47c8.434 100.33 24.284 222.67-163.289 137.28-247.89-101.45-871.193-305.1-741.127 131.24" stroke="url(#paint1_radial_bg-lines)"/><path d="M835.478 1376.75c3.967 118.71 56.183 222.54-134.551 143.4-265.283-88.41-855.77-267.28-741.67 165.32" stroke="url(#paint2_radial_bg-lines)"/><path d="M827.532 1340.53c-.569 137.06 88.082 222.52-105.835 149.62-282.727-75.43-840.493-229.4-742.347 199.4" stroke="url(#paint3_radial_bg-lines)"/><path d="M819.24 1303.86c-5.175 155.39 119.981 222.63-77.145 155.95-300.219-62.51-825.361-191.47-743.152 233.47" stroke="url(#paint4_radial_bg-lines)"/><path d="M810.651 1266.78c-9.85 173.72 151.879 222.86-48.479 162.4-317.761-49.67-810.376-153.49-744.09 267.54" stroke="url(#paint5_radial_bg-lines)"/><path d="M801.806 1229.34c-14.594 192.02 183.778 223.21-19.836 168.95-335.354-36.9-795.537-115.45-745.158 301.61" stroke="url(#paint6_radial_bg-lines)"/><path d="M792.74 1191.56c-19.405 210.31 215.68 223.68 8.781 175.61-352.994-24.18-780.843-77.35-746.357 335.68" stroke="url(#paint7_radial_bg-lines)"/><path d="M783.485 1153.47c-24.287 228.58 247.575 224.28 37.373 182.38-370.684-11.53-766.296-39.19-747.687 369.75" stroke="url(#paint8_radial_bg-lines)"/><path d="M774.065 1115.11c-29.237 246.83 279.465 224.99 65.94 189.25-388.423 1.05-751.896-.98-749.149 403.81" stroke="url(#paint9_radial_bg-lines)"/><path d="M764.504 1076.49c-34.256 265.06 311.356 225.82 94.48 196.23-406.21 13.56-737.642 37.28-750.74 437.86" stroke="url(#paint10_radial_bg-lines)"/><path d="M754.822 1037.62c-39.344 283.28 343.248 226.78 122.994 203.33-424.046 26-723.535 75.59-752.463 471.91" stroke="url(#paint11_radial_bg-lines)"/><path d="M743.05 1000.42c-44.5 301.47 375.14 227.86 151.482 210.53-441.93 38.38-709.575 113.95-754.317 505.96" stroke="url(#paint12_radial_bg-lines)"/><path d="M721.6 972.101c-49.724 319.649 407.02 229.059 179.944 217.839-459.862 50.69-695.762 152.38-756.301 540" stroke="url(#paint13_radial_bg-lines)"/><path d="M699.913 943.654C644.895 1281.47 1138.82 1174.03 908.29 1168.91c-477.842 62.94-682.095 190.85-758.416 574.03" stroke="url(#paint14_radial_bg-lines)"/><path d="M678.029 915.062c-60.381 355.948 470.781 231.808 236.783 232.778-495.869 75.12-668.577 229.37-760.662 608.06" stroke="url(#paint15_radial_bg-lines)"/><path d="M655.978 886.316C590.167 1260.39 1158.64 1119.69 921.14 1126.73c-513.944 87.22-655.206 267.94-763.039 642.08" stroke="url(#paint16_radial_bg-lines)"/><path d="M633.784 857.41c-71.31 392.18 534.526 235.05 293.514 248.15-532.067 99.26-641.983 306.57-765.548 676.1" stroke="url(#paint17_radial_bg-lines)"/><path d="M611.468 828.341C534.59 1238.6 1177.86 1065.19 933.304 1084.34c-550.237 111.24-628.908 345.25-768.186 710.1" stroke="url(#paint18_radial_bg-lines)"/><path d="M589.044 799.108C506.531 1227.43 1187.3 1037.88 939.175 1063.06c-568.453 123.14-615.981 383.98-770.956 744.11" stroke="url(#paint19_radial_bg-lines)"/><path d="M560.054 762.715c-88.217 446.365 630.106 240.815 378.395 272.015-586.716 134.98-603.201 422.76-773.855 778.1" stroke="url(#paint20_radial_bg-lines)"/><path d="M519.204 713.325c-93.99 464.395 661.956 242.981 406.631 280.184-605.026 146.741-590.57 461.581-776.886 812.081" stroke="url(#paint21_radial_bg-lines)"/><path d="M478.429 663.783c-99.83 482.397 693.801 245.266 434.837 288.461C289.885 1110.69 335.179 1452.7 133.218 1798.3" stroke="url(#paint22_radial_bg-lines)"/><path d="M437.732 614.089c-105.739 500.381 725.638 247.67 463.014 296.844-641.784 170.077-565.753 539.387-783.341 880.017" stroke="url(#paint23_radial_bg-lines)"/><path d="M397.117 564.236c-111.716 518.344 757.463 250.197 491.16 305.336-660.232 181.638-553.568 578.358-786.764 913.978" stroke="url(#paint24_radial_bg-lines)"/><path d="M356.585 514.226c-117.76 536.284 789.295 252.843 519.276 313.933C197.136 1021.29 334.33 1445.53 85.544 1776.08" stroke="url(#paint25_radial_bg-lines)"/><path d="M317.647 465.699C193.775 1019.9 1138.75 721.31 865.009 788.337 167.744 992.892 335.366 1444.78 71.008 1770.2" stroke="url(#paint26_radial_bg-lines)"/><path d="M275.783 413.725C145.73 985.827 1128.7 672.224 851.199 745.174 135.349 961.085 333.294 1440.73 53.383 1760.96" stroke="url(#paint27_radial_bg-lines)"/><path d="M235.517 363.231C99.216 953.212 1120.23 624.739 838.955 703.599 104.475 930.795 332.64 1438.31 37.194 1753.3" stroke="url(#paint28_radial_bg-lines)"/><path d="M195.341 312.575C52.724 920.413 1111.85 577.213 826.771 661.969 73.617 900.381 331.896 1435.89 20.934 1745.57" stroke="url(#paint29_radial_bg-lines)"/><path d="M155.259 261.755c-149 625.672 948.291 267.888 659.389 358.525C42.774 869.839 331.064 1433.45 4.605 1737.77" stroke="url(#paint30_radial_bg-lines)"/></g><defs><radialGradient id="paint0_radial_bg-lines" cx="0" cy="0" r="1" gradientUnits="userSpaceOnUse" gradientTransform="rotate(138.417 -78.96 464.846) scale(710.426 525.994)"><stop stop-color="#fff"/><stop offset="1" stop-color="#fff" stop-opacity="0"/></radialGradient><radialGradient id="paint1_radial_bg-lines" cx="0" cy="0" r="1" gradientUnits="userSpaceOnUse" gradientTransform="rotate(135.181 -127.88 843.322) scale(415.402 339.225)"><stop stop-color="#fff"/><stop offset="1" stop-color="#fff" stop-opacity="0"/></radialGradient><radialGradient id="paint2_radial_bg-lines" cx="0" cy="0" r="1" gradientUnits="userSpaceOnUse" gradientTransform="rotate(135.289 -118.565 841.413) scale(419.943 322.301)"><stop stop-color="#fff"/><stop offset="1" stop-color="#fff" stop-opacity="0"/></radialGradient><radialGradient id="paint3_radial_bg-lines" cx="0" cy="0" r="1" gradientUnits="userSpaceOnUse" gradientTransform="rotate(135.397 -109.376 839.303) scale(424.485 305.77)"><stop stop-color="#fff"/><stop offset="1" stop-color="#fff" stop-opacity="0"/></radialGradient><radialGradient id="paint4_radial_bg-lines" cx="0" cy="0" r="1" gradientUnits="userSpaceOnUse" gradientTransform="matrix(-306.02923 300.6816 -202.9681 -206.5779 414.752 1504.33)"><stop stop-color="#fff"/><stop offset="1" stop-color="#fff" stop-opacity="0"/></radialGradient><radialGradient id="paint5_radial_bg-lines" cx="0" cy="0" r="1" gradientUnits="userSpaceOnUse" gradientTransform="rotate(135.612 -91.356 834.509) scale(433.568 273.785)"><stop stop-color="#fff"/><stop offset="1" stop-color="#fff" stop-opacity="0"/></radialGradient><radialGradient id="paint6_radial_bg-lines" cx="0" cy="0" r="1" gradientUnits="userSpaceOnUse" gradientTransform="rotate(135.72 -82.511 831.84) scale(438.109 258.304)"><stop stop-color="#fff"/><stop offset="1" stop-color="#fff" stop-opacity="0"/></radialGradient><radialGradient id="paint7_radial_bg-lines" cx="0" cy="0" r="1" gradientUnits="userSpaceOnUse" gradientTransform="matrix(-317.49197 308.44571 -169.43676 -174.40609 450.959 1475)"><stop stop-color="#fff"/><stop offset="1" stop-color="#fff" stop-opacity="0"/></radialGradient><radialGradient id="paint8_radial_bg-lines" cx="0" cy="0" r="1" gradientUnits="userSpaceOnUse" gradientTransform="matrix(-321.33653 311.0055 -158.81558 -164.09114 462.449 1464.79)"><stop stop-color="#fff"/><stop offset="1" stop-color="#fff" stop-opacity="0"/></radialGradient><radialGradient id="paint9_radial_bg-lines" cx="0" cy="0" r="1" gradientUnits="userSpaceOnUse" gradientTransform="matrix(-325.19113 313.55117 -148.48796 -154.00028 473.635 1454.34)"><stop stop-color="#fff"/><stop offset="1" stop-color="#fff" stop-opacity="0"/></radialGradient><radialGradient id="paint10_radial_bg-lines" cx="0" cy="0" r="1" gradientUnits="userSpaceOnUse" gradientTransform="matrix(-329.05718 316.0841 -138.47332 -144.1567 484.497 1443.63)"><stop stop-color="#fff"/><stop offset="1" stop-color="#fff" stop-opacity="0"/></radialGradient><radialGradient id="paint11_radial_bg-lines" cx="0" cy="0" r="1" gradientUnits="userSpaceOnUse" gradientTransform="matrix(-332.9332 318.60287 -128.80194 -134.59528 495.006 1432.63)"><stop stop-color="#fff"/><stop offset="1" stop-color="#fff" stop-opacity="0"/></radialGradient><radialGradient id="paint12_radial_bg-lines" cx="0" cy="0" r="1" gradientUnits="userSpaceOnUse" gradientTransform="rotate(136.368 -32.593 812.015) scale(466.73 173.204)"><stop stop-color="#fff"/><stop offset="1" stop-color="#fff" stop-opacity="0"/></radialGradient><radialGradient id="paint13_radial_bg-lines" cx="0" cy="0" r="1" gradientUnits="userSpaceOnUse" gradientTransform="rotate(136.475 -30.036 805.875) scale(479.25 167.72)"><stop stop-color="#fff"/><stop offset="1" stop-color="#fff" stop-opacity="0"/></radialGradient><radialGradient id="paint14_radial_bg-lines" cx="0" cy="0" r="1" gradientUnits="userSpaceOnUse" gradientTransform="matrix(-357.26837 338.05276 -122.83618 -129.81844 490.774 1387.59)"><stop stop-color="#fff"/><stop offset="1" stop-color="#fff" stop-opacity="0"/></radialGradient><radialGradient id="paint15_radial_bg-lines" cx="0" cy="0" r="1" gradientUnits="userSpaceOnUse" gradientTransform="rotate(136.691 -31.682 777.053) scale(504.521 189.814)"><stop stop-color="#fff"/><stop offset="1" stop-color="#fff" stop-opacity="0"/></radialGradient><radialGradient id="paint16_radial_bg-lines" cx="0" cy="0" r="1" gradientUnits="userSpaceOnUse" gradientTransform="matrix(-377.0441 354.08036 -137.589 -146.51227 465.672 1340.75)"><stop stop-color="#fff"/><stop offset="1" stop-color="#fff" stop-opacity="0"/></radialGradient><radialGradient id="paint17_radial_bg-lines" cx="0" cy="0" r="1" gradientUnits="userSpaceOnUse" gradientTransform="rotate(136.907 -33.549 748.027) scale(529.994 212.241)"><stop stop-color="#fff"/><stop offset="1" stop-color="#fff" stop-opacity="0"/></radialGradient><radialGradient id="paint18_radial_bg-lines" cx="0" cy="0" r="1" gradientUnits="userSpaceOnUse" gradientTransform="rotate(137.015 -34.55 733.445) scale(542.782 223.564)"><stop stop-color="#fff"/><stop offset="1" stop-color="#fff" stop-opacity="0"/></radialGradient><radialGradient id="paint19_radial_bg-lines" cx="0" cy="0" r="1" gradientUnits="userSpaceOnUse" gradientTransform="rotate(137.123 -35.591 718.814) scale(555.596 234.953)"><stop stop-color="#fff"/><stop offset="1" stop-color="#fff" stop-opacity="0"/></radialGradient><radialGradient id="paint20_radial_bg-lines" cx="0" cy="0" r="1" gradientUnits="userSpaceOnUse" gradientTransform="matrix(-417.28517 385.99114 -170.55554 -184.38324 411.318 1242.45)"><stop stop-color="#fff"/><stop offset="1" stop-color="#fff" stop-opacity="0"/></radialGradient><radialGradient id="paint21_radial_bg-lines" cx="0" cy="0" r="1" gradientUnits="userSpaceOnUse" gradientTransform="rotate(137.338 -41.349 680.306) scale(581.287 276.154)"><stop stop-color="#fff"/><stop offset="1" stop-color="#fff" stop-opacity="0"/></radialGradient><radialGradient id="paint22_radial_bg-lines" cx="0" cy="0" r="1" gradientUnits="userSpaceOnUse" gradientTransform="rotate(137.446 -45.093 658.832) scale(594.158 301.137)"><stop stop-color="#fff"/><stop offset="1" stop-color="#fff" stop-opacity="0"/></radialGradient><radialGradient id="paint23_radial_bg-lines" cx="0" cy="0" r="1" gradientUnits="userSpaceOnUse" gradientTransform="matrix(-447.9439 409.68896 -220.09745 -240.64917 345.254 1140.62)"><stop stop-color="#fff"/><stop offset="1" stop-color="#fff" stop-opacity="0"/></radialGradient><radialGradient id="paint24_radial_bg-lines" cx="0" cy="0" r="1" gradientUnits="userSpaceOnUse" gradientTransform="rotate(137.662 -52.6 615.843) scale(619.937 351.104)"><stop stop-color="#fff"/><stop offset="1" stop-color="#fff" stop-opacity="0"/></radialGradient><radialGradient id="paint25_radial_bg-lines" cx="0" cy="0" r="1" gradientUnits="userSpaceOnUse" gradientTransform="rotate(137.77 -56.358 594.323) scale(632.842 376.087)"><stop stop-color="#fff"/><stop offset="1" stop-color="#fff" stop-opacity="0"/></radialGradient><radialGradient id="paint26_radial_bg-lines" cx="0" cy="0" r="1" gradientUnits="userSpaceOnUse" gradientTransform="matrix(-478.96908 433.11595 -269.00292 -297.48172 280.971 1039.6)"><stop stop-color="#fff"/><stop offset="1" stop-color="#fff" stop-opacity="0"/></radialGradient><radialGradient id="paint27_radial_bg-lines" cx="0" cy="0" r="1" gradientUnits="userSpaceOnUse" gradientTransform="matrix(-489.38544 440.8612 -285.16313 -316.55016 257.6 1003.55)"><stop stop-color="#fff"/><stop offset="1" stop-color="#fff" stop-opacity="0"/></radialGradient><radialGradient id="paint28_radial_bg-lines" cx="0" cy="0" r="1" gradientUnits="userSpaceOnUse" gradientTransform="rotate(138.094 -67.649 529.663) scale(671.606 451.038)"><stop stop-color="#fff"/><stop offset="1" stop-color="#fff" stop-opacity="0"/></radialGradient><radialGradient id="paint29_radial_bg-lines" cx="0" cy="0" r="1" gradientUnits="userSpaceOnUse" gradientTransform="rotate(138.201 -71.42 508.077) scale(684.541 476.021)"><stop stop-color="#fff"/><stop offset="1" stop-color="#fff" stop-opacity="0"/></radialGradient><radialGradient id="paint30_radial_bg-lines" cx="0" cy="0" r="1" gradientUnits="userSpaceOnUse" gradientTransform="rotate(138.309 -75.189 486.472) scale(697.481 501.005)"><stop stop-color="#fff"/><stop offset="1" stop-color="#fff" stop-opacity="0"/></radialGradient><clipPath id="clip0_bg-lines"><path fill="#fff" d="M0 0h1051v2065H0z"/></clipPath></defs></svg>