<svg width="50" height="18" viewBox="0 0 50 18" fill="none" xmlns="http://www.w3.org/2000/svg">
<path d="M23.2025 10.2778C22.7306 10.2778 22.3602 10.1193 22.0915 9.80238C21.8228 9.482 21.6885 9.01865 21.6885 8.41234C21.6885 8.10918 21.7229 7.8422 21.7918 7.61139C21.8607 7.38058 21.9606 7.18594 22.0915 7.02747C22.2224 6.869 22.3809 6.75015 22.5669 6.67091C22.7564 6.58824 22.9683 6.5469 23.2025 6.5469C23.516 6.5469 23.7778 6.61579 23.988 6.75359C24.2016 6.89139 24.3686 7.09464 24.4892 7.36335L23.9983 7.63206C23.9363 7.45981 23.8398 7.32373 23.7089 7.22383C23.5815 7.12048 23.4127 7.06881 23.2025 7.06881C22.9235 7.06881 22.7047 7.16354 22.5463 7.35302C22.3878 7.54249 22.3086 7.8043 22.3086 8.13847V8.68621C22.3086 9.02037 22.3878 9.28219 22.5463 9.47166C22.7047 9.66114 22.9235 9.75587 23.2025 9.75587C23.4196 9.75587 23.5953 9.70075 23.7296 9.59051C23.8674 9.47683 23.969 9.33214 24.0345 9.15645L24.5047 9.44066C24.3841 9.70248 24.2153 9.90745 23.9983 10.0556C23.7813 10.2037 23.516 10.2778 23.2025 10.2778ZM25.7076 10.2158H25.1237V6.60891H26.6791C27.0029 6.60891 27.2579 6.70709 27.4439 6.90345C27.6299 7.09637 27.7229 7.35991 27.7229 7.69407C27.7229 7.95244 27.6627 8.16775 27.5421 8.34C27.425 8.5088 27.251 8.62765 27.0202 8.69655L27.8005 10.2158H27.1494L26.4259 8.75856H25.7076V10.2158ZM26.6378 8.26765C26.7859 8.26765 26.9013 8.22976 26.984 8.15397C27.0667 8.07473 27.108 7.96277 27.108 7.81808V7.57005C27.108 7.42536 27.0667 7.31512 26.984 7.23933C26.9013 7.1601 26.7859 7.12048 26.6378 7.12048H25.7076V8.26765H26.6378ZM29.1656 10.2158V8.79473L27.9254 6.60891H28.592L29.4705 8.21598H29.486L30.3593 6.60891H31.0001L29.7495 8.7844V10.2158H29.1656ZM32.4208 10.2778C32.1176 10.2778 31.8593 10.2227 31.6457 10.1124C31.4355 10.0022 31.2547 9.85405 31.1031 9.66803L31.5062 9.2908C31.6336 9.44583 31.7731 9.56296 31.9247 9.64219C32.0797 9.72142 32.2554 9.76104 32.4518 9.76104C32.6826 9.76104 32.8566 9.70937 32.9737 9.60602C33.0908 9.50267 33.1494 9.36315 33.1494 9.18745C33.1494 9.04621 33.1081 8.93425 33.0254 8.85157C32.9427 8.76889 32.7963 8.70688 32.5861 8.66554L32.2658 8.6087C31.9144 8.54325 31.6508 8.42784 31.4751 8.26248C31.2995 8.09713 31.2116 7.86976 31.2116 7.58038C31.2116 7.42191 31.2409 7.27895 31.2995 7.15149C31.3615 7.02058 31.4459 6.91206 31.5527 6.82594C31.6629 6.73637 31.7955 6.66747 31.9506 6.61924C32.1056 6.57101 32.2795 6.5469 32.4725 6.5469C32.7446 6.5469 32.9806 6.59513 33.1804 6.69158C33.3802 6.7846 33.5507 6.92067 33.692 7.09981L33.2838 7.46153C33.1907 7.34096 33.0771 7.2445 32.9427 7.17216C32.8083 7.09981 32.6413 7.06364 32.4415 7.06364C32.2348 7.06364 32.0746 7.10498 31.9609 7.18766C31.8472 7.27034 31.7904 7.39091 31.7904 7.54938C31.7904 7.70096 31.8369 7.81464 31.9299 7.89043C32.0229 7.96277 32.1676 8.01789 32.3639 8.05579L32.6843 8.12296C33.046 8.19186 33.3096 8.30899 33.4749 8.47435C33.6437 8.63971 33.7282 8.86707 33.7282 9.15645C33.7282 9.32525 33.6989 9.47855 33.6403 9.61635C33.5817 9.75415 33.4956 9.873 33.3819 9.97291C33.2717 10.0694 33.1356 10.1452 32.9737 10.2003C32.8118 10.2519 32.6275 10.2778 32.4208 10.2778ZM35.6817 7.12565V10.2158H35.0978V7.12565H34.023V6.60891H36.7565V7.12565H35.6817ZM39.2406 10.2158L38.9151 9.23913H37.5664L37.2512 10.2158H36.6569L37.8868 6.60891H38.6205L39.8504 10.2158H39.2406ZM38.2537 7.14632H38.2278L37.7059 8.73789H38.7704L38.2537 7.14632ZM40.409 10.2158V6.60891H40.993V9.69903H42.4605V10.2158H40.409ZM42.9033 10.2158V9.74037H43.3942V7.08431H42.9033V6.60891H44.4742V7.08431H43.9782V9.74037H44.4742V10.2158H42.9033ZM46.1796 8.22114L45.7817 7.45636H45.7662V10.2158H45.2081V6.60891H45.8592L47.0374 8.60353L47.4353 9.36832H47.4508V6.60891H48.0088V10.2158H47.3577L46.1796 8.22114Z" fill="white"/>
<path d="M4.14862 0.559173L11.8088 11.989L15.0644 0.377747" stroke="#31D0BC" stroke-width="0.725705"/>
<path d="M11.8088 11.989L19.2775 11.2633M11.8088 11.989L1.27604 11.2633M11.8088 11.989L10.4683 16.8875" stroke="#31D0BC" stroke-width="0.725705"/>
<path d="M5.87218 6.90907L1.08454 10.9004" stroke="#31D0BC" stroke-width="0.725705"/>
<path d="M4.14863 0.559151H15.2559M4.14863 0.559151L1.08454 11.0819L10.2768 17.0689M4.14863 0.559151L5.68067 6.90907M15.2559 0.559151L19.4691 11.0819M15.2559 0.559151L5.68067 6.90907M19.4691 11.0819L10.2768 17.0689M19.4691 11.0819L5.68067 6.90907M10.2768 17.0689L5.68067 6.90907" stroke="#4062EE" stroke-width="0.725705"/>
</svg>
