<svg id="discussion" width="64" height="64" viewBox="0 0 64 64" fill="none" xmlns="http://www.w3.org/2000/svg"><g clip-path="url(#clip0_discussion)"><path d="M54 0H10C8.907 0 8 .907 8 2v22.667A7.33 7.33 0 0015.333 32h6.694A11.998 11.998 0 0132 26.667c4.133 0 7.813 2.106 9.973 5.333h6.694A7.33 7.33 0 0056 24.667V2c0-1.093-.907-2-2-2zM44 16.667a2.002 2.002 0 01-2 2 1.99 1.99 0 01-1.413-.587l-2.096-2.096-3.8 3.485a1.996 1.996 0 01-2.35.267l-3.338-1.91-5.59 5.587c-.389.392-.901.587-1.413.587a2 2 0 01-1.413-3.416l6.666-6.667a1.999 1.999 0 012.406-.322l3.394 1.941 2.603-2.384-1.736-1.739a2.001 2.001 0 01-.435-2.178A2.002 2.002 0 0135.333 8H42a2 2 0 012 2v6.667z" fill="#000"/><path d="M54 0H10C8.907 0 8 .907 8 2v22.667A7.33 7.33 0 0015.333 32h6.694A11.998 11.998 0 0132 26.667c4.133 0 7.813 2.106 9.973 5.333h6.694A7.33 7.33 0 0056 24.667V2c0-1.093-.907-2-2-2zM44 16.667a2.002 2.002 0 01-2 2 1.99 1.99 0 01-1.413-.587l-2.096-2.096-3.8 3.485a1.996 1.996 0 01-2.35.267l-3.338-1.91-5.59 5.587c-.389.392-.901.587-1.413.587a2 2 0 01-1.413-3.416l6.666-6.667a1.999 1.999 0 012.406-.322l3.394 1.941 2.603-2.384-1.736-1.739a2.001 2.001 0 01-.435-2.178A2.002 2.002 0 0135.333 8H42a2 2 0 012 2v6.667z" fill="url(#paint0_linear)"/><path d="M10.667 45.333a5.333 5.333 0 100-10.666 5.333 5.333 0 000 10.666zM17.787 49.067A11.174 11.174 0 0013.333 58v.667H2c-1.093 0-2-.907-2-2v-1.334A7.33 7.33 0 017.333 48H14c1.387 0 2.693.4 3.787 1.067zM53.333 45.333a5.333 5.333 0 100-10.666 5.333 5.333 0 000 10.666zM64 55.333v1.334c0 1.093-.907 2-2 2H50.667V58c0-3.653-1.76-6.907-4.454-8.933A7.285 7.285 0 0150 48h6.667A7.33 7.33 0 0164 55.333zM32 46.667a8 8 0 100-16 8 8 0 000 16zM39.334 50.667H24.666A7.34 7.34 0 0017.333 58v4a2 2 0 002 2h25.334a2 2 0 002-2v-4a7.34 7.34 0 00-7.334-7.333z" fill="#3D5DF2"/><path d="M59.333 4H4.667a2 2 0 010-4h54.666a2 2 0 010 4z" fill="#000"/><path d="M59.333 4H4.667a2 2 0 010-4h54.666a2 2 0 010 4z" fill="url(#paint1_linear)"/></g><defs><linearGradient id="paint0_linear" x1="32" y1="0" x2="16.451" y2="71.052" gradientUnits="userSpaceOnUse"><stop stop-color="#B09CFF"/><stop offset="1" stop-color="#3D5DF2" stop-opacity=".79"/></linearGradient><linearGradient id="paint1_linear" x1="32" y1="0" x2="31.792" y2="9.302" gradientUnits="userSpaceOnUse"><stop stop-color="#B09CFF"/><stop offset="1" stop-color="#3D5DF2" stop-opacity=".79"/></linearGradient><clipPath id="clip0_discussion"><path fill="#fff" d="M0 0h64v64H0z"/></clipPath></defs></svg>