<svg id="growth" width="64" height="64" viewBox="0 0 64 64" fill="none" xmlns="http://www.w3.org/2000/svg"><path d="M10.23 42.243c1.77 1.584 3.778 2.84 5.93 3.784l11.317-7.107c2.341-1.477 5.478-1.128 7.437.843l3.806 3.805C44.424 39.363 48 32.635 48 25.333 48 12.835 37.832 2.667 25.333 2.667c-12.498 0-22.666 10.168-22.666 22.666 0 6.451 2.754 12.614 7.562 16.91zm16.117-14.91H24.32a5.66 5.66 0 01-.987-11.232V14a2 2 0 014 0v2H30a2 2 0 010 4h-5.68c-.912 0-1.654.741-1.654 1.653 0 .939.742 1.68 1.654 1.68h2.026a5.66 5.66 0 01.987 11.232v2.099a2 2 0 01-4 0v-1.997h-2.666a2 2 0 010-4h5.68c.912 0 1.653-.742 1.653-1.654a1.66 1.66 0 00-1.654-1.68z" fill="url(#paint0_linear_growth)"/><path d="M61.333 32H50.667a2.666 2.666 0 00-1.885 4.552L52.228 40 41.333 50.896l-8.781-8.781a2.667 2.667 0 00-3.288-.382l-28 17.334A2.666 2.666 0 004.069 63.6l26.203-16.221 9.173 9.173a2.664 2.664 0 003.771 0L56 43.771l3.448 3.448A2.668 2.668 0 0064 45.333V34.667A2.666 2.666 0 0061.333 32z" fill="#3D5DF2"/><defs><linearGradient id="paint0_linear_growth" x1="25.333" y1="2.667" x2="-3.5" y2="94.5" gradientUnits="userSpaceOnUse"><stop stop-color="#B09CFF"/><stop offset="1" stop-color="#3D5DF2" stop-opacity=".79"/></linearGradient></defs></svg>