<svg width="64" height="64" viewBox="0 0 64 64" fill="none" xmlns="http://www.w3.org/2000/svg"><g clip-path="url(#clip0_locked)"><path d="M44.48 8.08l-21.333-8a1.48 1.48 0 00-.96 0l-21.334 8A1.336 1.336 0 000 9.333V26.48C0 50.8 22.16 55.92 22.373 55.973c.107.027.187.027.294.027.106 0 .186 0 .293-.027.107-.026 6-1.386 11.707-6 0-3.813 2.186-7.093 5.333-8.773.053-3.92 2-7.413 4.96-9.573.24-1.6.373-3.334.373-5.147V9.333c0-.56-.346-1.066-.853-1.253z" fill="#000"/><path d="M44.48 8.08l-21.333-8a1.48 1.48 0 00-.96 0l-21.334 8A1.336 1.336 0 000 9.333V26.48C0 50.8 22.16 55.92 22.373 55.973c.107.027.187.027.294.027.106 0 .186 0 .293-.027.107-.026 6-1.386 11.707-6 0-3.813 2.186-7.093 5.333-8.773.053-3.92 2-7.413 4.96-9.573.24-1.6.373-3.334.373-5.147V9.333c0-.56-.346-1.066-.853-1.253z" fill="url(#paint0_linear)"/><path d="M59.333 45.333h-.666v-4A6.674 6.674 0 0052 34.667a6.674 6.674 0 00-6.667 6.666v4h-.666A4.672 4.672 0 0040 50v9.333A4.672 4.672 0 0044.667 64h14.666A4.672 4.672 0 0064 59.333V50a4.672 4.672 0 00-4.667-4.667zm-10-4A2.67 2.67 0 0152 38.667a2.67 2.67 0 012.667 2.666v4h-5.334v-4z" fill="#3D5DF2"/><path d="M23.68 28.333h-2.027a5.66 5.66 0 01-.986-11.232V15a2 2 0 014 0v2h2.666a2 2 0 010 4h-5.68c-.912 0-1.653.741-1.653 1.653 0 .939.741 1.68 1.653 1.68h2.027a5.66 5.66 0 01.987 11.232v2.099a2 2 0 01-4 0v-1.997H18a2 2 0 010-4h5.68c.912 0 1.653-.742 1.653-1.654a1.66 1.66 0 00-1.653-1.68z" fill="#fff"/></g><defs><linearGradient id="paint0_linear" x1="22.667" y1="0" x2="-22.707" y2="111.897" gradientUnits="userSpaceOnUse"><stop stop-color="#B09CFF"/><stop offset="1" stop-color="#3D5DF2" stop-opacity=".79"/></linearGradient><clipPath id="clip0_locked"><path fill="#fff" d="M0 0h64v64H0z"/></clipPath></defs></svg>